<?xml version="1.0" encoding="UTF-8" standalone="no"?>
<!DOCTYPE svg PUBLIC "-//W3C//DTD SVG 1.1//EN" "http://www.w3.org/Graphics/SVG/1.1/DTD/svg11.dtd">
<svg width="100%" height="100%" viewBox="0 0 1792 1792" version="1.1" xmlns="http://www.w3.org/2000/svg" xmlns:xlink="http://www.w3.org/1999/xlink" xml:space="preserve" xmlns:serif="http://www.serif.com/" style="fill-rule:evenodd;clip-rule:evenodd;stroke-linejoin:round;stroke-miterlimit:1.41421;">
    <g transform="matrix(0.910369,0,0,-0.910369,93.7022,1418.59)">
        <path d="M1792,826L1792,32C1792,-12 1776.33,-49.667 1745,-81C1713.67,-112.333 1676,-128 1632,-128L160,-128C116,-128 78.333,-112.333 47,-81C15.667,-49.667 0,-12 0,32L0,826C29.333,793.333 63,764.333 101,739C342.333,575 508,460 598,394C636,366 666.833,344.167 690.5,328.5C714.167,312.833 745.667,296.833 785,280.5C824.333,264.167 861,256 895,256L897,256C931,256 967.667,264.167 1007,280.5C1046.33,296.833 1077.83,312.833 1101.5,328.5C1125.17,344.167 1156,366 1194,394C1307.33,476 1473.33,591 1692,739C1730,765 1763.33,794 1792,826ZM1792,1120C1792,1067.33 1775.67,1017 1743,969C1710.33,921 1669.67,880 1621,846C1370.33,672 1214.33,563.667 1153,521C1146.33,516.333 1132.17,506.167 1110.5,490.5C1088.83,474.833 1070.83,462.167 1056.5,452.5C1042.17,442.833 1024.83,432 1004.5,420C984.167,408 965,399 947,393C929,387 912.333,384 897,384L896,384L895,384C879.667,384 863,387 845,393C827,399 807.833,408 787.5,420C767.167,432 749.833,442.833 735.5,452.5C721.167,462.167 703.167,474.833 681.5,490.5C659.833,506.167 645.667,516.333 639,521C578.333,563.667 491,624.5 377,703.5C263,782.5 194.667,830 172,846C130.667,874 91.667,912.5 55,961.5C18.333,1010.5 0,1056 0,1098C0,1150 13.833,1193.33 41.5,1228C69.167,1262.67 108.667,1280 160,1280L1632,1280C1675.33,1280 1712.83,1264.33 1744.5,1233C1776.17,1201.67 1792,1164 1792,1120Z" style="fill:rgb(96,108,118);fill-rule:nonzero;"/>
    </g>
</svg>
