<?xml version="1.0" encoding="UTF-8" standalone="no"?>
<!DOCTYPE svg PUBLIC "-//W3C//DTD SVG 1.1//EN" "http://www.w3.org/Graphics/SVG/1.1/DTD/svg11.dtd">
<svg width="100%" height="100%" viewBox="0 0 1792 1792" version="1.1" xmlns="http://www.w3.org/2000/svg" xmlns:xlink="http://www.w3.org/1999/xlink" xml:space="preserve" xmlns:serif="http://www.serif.com/" style="fill-rule:evenodd;clip-rule:evenodd;stroke-linejoin:round;stroke-miterlimit:1.41421;">
    <g transform="matrix(0.706346,0,0,0.689546,96.6278,280.785)">
        <path d="M1774,836L1792,1152C1794.67,1198 1767.33,1240.67 1710,1280C1652.67,1319.33 1574.33,1350.5 1475,1373.5C1375.67,1396.5 1268,1408 1152,1408C1036,1408 928.333,1396.5 829,1373.5C729.667,1350.5 651.333,1319.33 594,1280C536.667,1240.67 509.333,1198 512,1152L530,836L1104,1017C1118.67,1021.67 1134.67,1024 1152,1024C1169.33,1024 1185.33,1021.67 1200,1017L1774,836ZM2304,512C2304,527.333 2296.67,537.667 2282,543L1162,895C1159.33,895.667 1156,896 1152,896C1148,896 1144.67,895.667 1142,895L490,689C461.333,711.667 437.667,748.833 419,800.5C400.333,852.167 389,911.667 385,979C427,1003 448,1039.33 448,1088C448,1134 428.667,1169.67 390,1195L448,1628C449.333,1637.33 446.667,1645.67 440,1653C434,1660.33 426,1664 416,1664L224,1664C214,1664 206,1660.33 200,1653C193.333,1645.67 190.667,1637.33 192,1628L250,1195C211.333,1169.67 192,1134 192,1088C192,1039.33 213.667,1002.33 257,977C264.333,839 297,729 355,647L22,543C7.333,537.667 0,527.333 0,512C0,496.667 7.333,486.333 22,481L1142,129C1144.67,128.333 1148,128 1152,128C1156,128 1159.33,128.333 1162,129L2282,481C2296.67,486.333 2304,496.667 2304,512Z" style="fill:rgb(96,108,118);fill-rule:nonzero;"/>
    </g>
</svg>
